<?xml version="1.0" standalone="no"?>
<!DOCTYPE svg PUBLIC "-//W3C//DTD SVG 20010904//EN"
 "http://www.w3.org/TR/2001/REC-SVG-20010904/DTD/svg10.dtd">
<svg version="1.0" xmlns="http://www.w3.org/2000/svg"
 width="540.000000pt" height="496.000000pt" viewBox="0 0 540.000000 496.000000"
 preserveAspectRatio="xMidYMid meet">

<g transform="translate(0.000000,496.000000) scale(0.100000,-0.100000)"
fill="#000000" stroke="none">
<path d="M2635 4815 c-5 -3 -57 -9 -115 -15 -58 -5 -134 -14 -170 -20 -36 -6
-83 -13 -105 -16 -22 -3 -44 -10 -49 -15 -6 -5 -22 -9 -37 -9 -15 0 -30 -4
-33 -9 -3 -5 -23 -12 -43 -15 -91 -16 -103 -19 -103 -25 0 -4 -22 -14 -50 -21
-28 -7 -50 -16 -50 -20 0 -4 -22 -13 -50 -20 -27 -7 -50 -17 -50 -22 0 -4 -9
-8 -20 -8 -11 0 -20 -4 -20 -10 0 -5 -9 -10 -20 -10 -11 0 -20 -4 -20 -10 0
-5 -9 -10 -20 -10 -11 0 -20 -3 -20 -7 0 -5 -10 -13 -23 -18 -48 -23 -113 -61
-131 -77 -11 -10 -24 -18 -28 -18 -5 0 -18 -9 -30 -20 -12 -11 -28 -20 -35
-20 -7 0 -13 -4 -13 -8 0 -4 -14 -16 -30 -26 -17 -9 -41 -28 -55 -42 -13 -13
-29 -24 -34 -24 -14 0 -332 -317 -361 -360 -14 -19 -35 -46 -47 -60 -13 -14
-26 -33 -29 -42 -3 -10 -9 -18 -13 -18 -5 0 -14 -13 -21 -30 -7 -16 -16 -30
-21 -30 -5 0 -9 -6 -9 -13 0 -7 -8 -22 -17 -33 -16 -17 -46 -69 -77 -131 -6
-13 -14 -23 -18 -23 -5 0 -8 -6 -8 -13 0 -18 -24 -67 -32 -67 -5 0 -8 -7 -8
-15 0 -8 -4 -24 -10 -35 -5 -11 -14 -29 -20 -40 -5 -11 -10 -27 -10 -35 0 -8
-3 -15 -7 -15 -5 0 -19 -35 -32 -78 -12 -42 -27 -86 -31 -97 -5 -11 -11 -33
-15 -50 -3 -16 -10 -48 -16 -70 -68 -266 -85 -662 -40 -930 6 -33 13 -78 16
-100 4 -22 10 -49 14 -60 8 -19 13 -37 42 -147 6 -24 15 -53 20 -66 5 -13 9
-32 9 -42 0 -11 3 -20 8 -20 4 0 13 -19 20 -42 11 -40 129 -286 142 -298 3 -3
16 -25 29 -50 14 -25 31 -51 38 -58 7 -7 13 -17 13 -22 0 -5 6 -15 12 -22 7
-7 33 -42 57 -78 25 -36 52 -72 61 -80 8 -8 36 -40 60 -70 57 -70 147 -160
230 -230 36 -30 72 -62 80 -70 8 -8 44 -35 80 -60 36 -24 67 -48 68 -52 2 -4
8 -8 14 -8 5 0 28 -13 51 -28 23 -16 62 -40 87 -53 25 -13 47 -26 50 -29 6 -6
117 -60 173 -84 20 -9 52 -22 70 -30 17 -8 64 -25 102 -37 39 -12 79 -25 90
-30 11 -4 34 -10 50 -14 17 -3 48 -10 70 -15 184 -45 328 -60 555 -60 246 0
412 20 590 70 41 12 91 25 110 29 45 11 125 38 170 58 155 70 194 88 256 124
19 10 50 28 70 39 56 32 186 121 214 147 14 13 28 23 32 23 4 0 18 10 30 22
13 13 53 48 88 78 67 57 173 166 199 204 8 11 27 32 41 46 14 14 37 41 50 60
13 19 32 42 42 51 10 9 18 21 18 26 0 5 8 18 18 29 22 24 122 191 122 204 0 6
5 10 10 10 6 0 10 9 10 19 0 11 3 21 8 23 13 6 92 179 92 203 0 8 4 15 8 15 4
0 14 21 21 48 8 26 18 54 22 62 4 8 13 35 19 60 7 25 16 54 20 65 9 20 14 42
31 130 73 369 58 775 -41 1120 -6 22 -14 52 -17 68 -3 15 -9 30 -14 33 -5 3
-9 16 -9 30 0 13 -4 24 -8 24 -5 0 -15 23 -22 50 -7 28 -17 50 -22 50 -4 0 -8
6 -8 14 0 18 -100 220 -111 224 -5 2 -9 12 -9 23 0 10 -4 19 -10 19 -5 0 -10
6 -10 13 0 7 -9 23 -20 35 -11 12 -20 28 -20 37 0 8 -4 15 -8 15 -5 0 -15 12
-23 28 -8 15 -22 34 -31 43 -10 9 -18 21 -18 26 0 5 -8 18 -17 29 -10 10 -31
37 -48 59 -35 47 -333 345 -344 345 -5 0 -26 16 -47 35 -21 19 -43 35 -49 35
-6 0 -17 9 -25 20 -8 11 -19 20 -25 20 -6 0 -20 8 -31 18 -10 9 -31 23 -46 31
-16 8 -28 18 -28 23 0 4 -7 8 -15 8 -9 0 -25 9 -37 20 -12 11 -28 20 -35 20
-7 0 -13 5 -13 10 0 6 -9 10 -20 10 -11 0 -20 5 -20 10 0 6 -9 10 -20 10 -11
0 -20 5 -20 10 0 6 -9 10 -20 10 -11 0 -20 5 -20 10 0 6 -6 10 -13 10 -8 0
-27 6 -43 14 -53 25 -98 44 -139 58 -22 7 -42 16 -45 19 -5 6 -34 13 -107 26
-18 3 -33 9 -33 14 0 5 -18 9 -39 9 -22 0 -42 4 -45 9 -3 5 -23 11 -43 15 -21
3 -67 10 -103 16 -160 27 -485 48 -515 35z m430 -233 c92 -17 156 -30 205 -42
25 -6 60 -14 78 -17 17 -3 32 -9 32 -14 0 -5 14 -9 30 -9 17 0 30 -4 30 -10 0
-5 14 -10 30 -10 17 0 30 -4 30 -8 0 -5 23 -15 50 -22 28 -7 50 -17 50 -22 0
-4 9 -8 20 -8 11 0 20 -4 20 -10 0 -5 9 -10 20 -10 11 0 20 -4 20 -10 0 -5 9
-10 20 -10 11 0 20 -4 20 -10 0 -5 9 -10 20 -10 11 0 20 -4 20 -10 0 -5 9 -10
20 -10 11 0 20 -4 20 -9 0 -5 8 -11 18 -14 26 -8 75 -40 93 -59 9 -10 24 -18
33 -18 9 0 16 -4 16 -8 0 -4 13 -16 30 -25 16 -10 35 -23 42 -30 7 -7 29 -24
48 -37 46 -32 340 -326 340 -340 0 -6 11 -22 24 -35 14 -13 27 -34 31 -45 3
-11 10 -20 14 -20 5 0 14 -13 21 -30 7 -16 16 -30 21 -30 4 0 11 -9 14 -20 3
-11 12 -26 18 -32 12 -13 52 -82 72 -125 5 -13 13 -23 18 -23 4 0 7 -6 7 -14
0 -12 14 -44 51 -118 5 -10 9 -25 9 -33 0 -8 3 -15 8 -15 4 0 18 -35 31 -78
12 -42 27 -86 31 -97 5 -11 11 -33 15 -50 3 -16 10 -48 16 -70 72 -282 71
-687 -1 -975 -6 -25 -14 -60 -17 -77 -3 -18 -9 -33 -14 -33 -5 0 -9 -11 -9
-25 0 -24 -6 -41 -41 -122 -11 -24 -19 -47 -19 -51 0 -15 -122 -257 -132 -260
-4 -2 -8 -8 -8 -13 0 -9 -96 -158 -109 -169 -4 -3 -17 -22 -31 -42 -14 -21
-28 -38 -32 -38 -5 0 -8 -6 -8 -14 0 -14 -243 -266 -257 -266 -4 0 -22 -12
-38 -28 -67 -60 -254 -192 -274 -192 -5 0 -11 -4 -13 -8 -10 -24 -340 -169
-458 -202 -140 -39 -180 -48 -260 -59 -41 -5 -113 -15 -160 -22 -183 -25 -545
9 -765 71 -22 6 -53 15 -70 19 -27 8 -84 28 -140 51 -60 24 -280 135 -283 142
-2 4 -8 8 -12 8 -9 0 -115 65 -152 92 -157 118 -332 279 -408 378 -19 25 -42
52 -52 61 -10 9 -18 21 -18 26 0 5 -8 18 -18 29 -9 10 -23 31 -31 46 -8 16
-18 28 -23 28 -4 0 -8 6 -8 13 0 7 -8 22 -18 33 -32 37 -162 288 -162 315 0 8
-4 19 -9 25 -13 13 -71 187 -71 212 0 11 -4 23 -8 26 -5 3 -14 38 -21 78 -7
40 -16 89 -21 108 -37 148 -32 562 10 765 5 28 13 67 16 88 4 20 10 37 14 37
7 0 10 12 26 103 3 20 9 37 13 37 4 0 13 21 20 48 15 49 16 51 50 120 11 24
21 50 21 58 0 8 5 14 10 14 6 0 10 9 10 20 0 11 5 20 10 20 6 0 10 9 10 20 0
11 5 20 10 20 6 0 10 9 10 20 0 11 4 20 9 20 5 0 11 8 14 18 7 22 37 71 60 96
9 11 17 26 17 33 0 7 4 13 8 13 4 0 16 14 26 30 9 17 28 41 42 55 13 13 24 29
24 34 0 13 296 310 340 341 19 13 42 32 51 42 9 10 21 18 26 18 5 0 18 8 29
18 10 9 31 23 47 31 15 8 27 18 27 23 0 4 7 8 15 8 9 0 25 9 37 20 12 11 28
20 35 20 7 0 13 5 13 10 0 6 9 10 19 10 11 0 21 3 23 8 4 10 87 52 104 52 8 0
14 5 14 10 0 6 6 10 13 10 7 0 32 9 55 20 22 11 46 20 52 20 5 0 20 5 33 12
48 24 57 28 76 28 11 0 22 4 25 9 3 5 22 12 41 15 19 3 51 9 70 12 19 3 38 10
41 15 3 5 25 9 50 9 24 0 44 5 44 10 0 6 24 10 53 11 28 1 63 5 77 9 35 12
501 5 575 -8z"/>
<path d="M2550 3970 c-8 -5 -36 -10 -62 -10 -27 0 -48 -4 -48 -10 0 -5 -13
-10 -30 -10 -16 0 -30 -4 -30 -10 0 -5 -6 -10 -13 -10 -18 0 -67 -24 -67 -32
0 -5 -9 -8 -20 -8 -11 0 -20 -4 -20 -10 0 -5 -6 -10 -13 -10 -7 0 -23 -9 -35
-20 -12 -11 -25 -20 -30 -20 -13 0 -114 -99 -142 -140 -13 -19 -27 -37 -30
-40 -13 -11 -70 -129 -70 -144 0 -9 -4 -16 -10 -16 -5 0 -10 -18 -10 -40 0
-22 -4 -40 -10 -40 -6 0 -10 -61 -10 -164 0 -99 4 -167 10 -171 6 -3 10 -24
10 -45 0 -21 5 -42 10 -45 6 -3 10 -17 10 -30 0 -13 5 -27 10 -30 6 -3 10 -17
10 -31 0 -13 -4 -24 -10 -24 -5 0 -10 4 -10 8 0 5 -12 15 -27 23 -15 8 -41 26
-57 42 -16 15 -33 27 -38 27 -21 0 -39 32 -37 63 4 67 -1 85 -41 126 -22 22
-43 41 -48 41 -4 0 -19 10 -33 23 -28 25 -64 47 -77 47 -5 0 -18 -9 -29 -19
-21 -20 -21 -20 -50 7 -40 37 -68 52 -98 52 -36 0 -32 -29 10 -68 20 -17 40
-32 45 -32 5 0 14 -9 19 -19 8 -15 5 -25 -18 -51 l-28 -33 -24 21 c-12 12 -28
22 -34 22 -6 0 -17 9 -25 20 -23 32 -70 20 -70 -18 0 -15 48 -62 63 -62 5 0
16 -7 25 -16 13 -13 14 -21 4 -46 -12 -33 -1 -50 68 -98 19 -13 42 -31 50 -40
40 -40 111 -53 165 -28 29 13 63 0 103 -39 13 -13 27 -23 32 -23 5 0 20 -10
33 -22 26 -26 55 -43 129 -80 10 -4 40 -8 68 -8 41 0 56 5 75 25 14 13 25 31
25 40 0 8 5 15 11 15 7 0 9 15 5 43 -10 84 -18 117 -27 117 -5 0 -9 9 -9 19 0
11 -4 22 -9 25 -5 3 -11 23 -14 43 -4 21 -11 72 -17 113 -13 82 -6 268 10 284
6 6 10 22 10 37 0 15 5 31 10 34 6 3 10 14 10 23 0 10 9 24 20 32 11 8 20 20
20 27 0 17 126 143 143 143 7 0 19 9 27 20 8 11 22 20 32 20 10 0 18 5 18 10
0 6 9 10 19 10 11 0 21 4 23 8 5 12 106 44 173 54 96 15 225 21 225 10 0 -6
19 -12 43 -16 84 -10 117 -18 117 -27 0 -5 7 -9 16 -9 15 0 133 -58 144 -71 3
-3 25 -16 50 -30 25 -13 51 -29 58 -36 6 -6 21 -15 32 -18 11 -3 20 -11 20
-16 0 -5 7 -9 15 -9 9 0 25 -9 37 -20 12 -11 28 -20 35 -20 7 0 13 -4 13 -10
0 -5 8 -10 18 -10 10 0 24 -9 32 -20 8 -11 20 -20 28 -20 7 0 22 -9 34 -20 12
-11 28 -20 35 -20 7 0 13 -4 13 -10 0 -5 6 -10 13 -10 7 0 23 -9 35 -20 12
-11 28 -20 37 -20 8 0 15 -4 15 -9 0 -5 14 -14 30 -21 17 -7 30 -16 30 -21 0
-5 6 -9 13 -9 7 0 23 -9 35 -20 12 -11 28 -20 37 -20 8 0 15 -4 15 -10 0 -5 9
-10 20 -10 11 0 20 -4 20 -10 0 -5 9 -10 20 -10 11 0 20 -4 20 -9 0 -5 14 -14
30 -21 17 -7 30 -16 30 -21 0 -4 8 -10 19 -14 24 -7 51 -32 79 -72 33 -47 31
-160 -3 -220 -14 -23 -29 -43 -34 -43 -4 0 -16 -8 -27 -18 -23 -22 -97 -42
-151 -42 -35 0 -40 4 -65 49 -29 52 -101 111 -137 111 -12 0 -21 5 -21 10 0 6
-20 10 -45 10 -41 0 -63 -6 -125 -34 -35 -15 -101 -85 -112 -118 l-10 -28
-300 0 c-246 0 -302 3 -314 14 -8 8 -14 20 -14 26 0 25 -91 102 -142 121 -56
20 -138 26 -138 9 0 -5 -10 -10 -22 -10 -13 0 -34 -9 -48 -20 -14 -11 -29 -20
-35 -20 -18 0 -70 -93 -83 -149 -13 -59 -8 -90 31 -166 22 -43 64 -85 85 -85
6 0 12 -3 12 -8 0 -23 162 -44 175 -22 3 6 17 10 30 10 40 0 135 88 135 125 0
13 43 15 320 15 282 0 320 -2 320 -15 0 -21 17 -41 94 -110 20 -18 81 -35 124
-35 46 0 122 20 122 32 0 5 6 8 13 8 19 0 60 41 81 82 21 38 28 41 136 57 30
4 64 11 75 16 43 16 110 48 115 54 3 3 21 18 40 32 19 15 49 53 66 85 38 72
62 191 45 222 -6 11 -11 30 -11 40 0 50 -108 191 -159 207 -12 3 -21 11 -21
16 0 5 -6 9 -13 9 -7 0 -23 9 -35 20 -12 11 -26 20 -32 20 -6 0 -20 9 -32 20
-12 11 -28 20 -35 20 -7 0 -13 5 -13 10 0 6 -7 10 -15 10 -9 0 -25 9 -37 20
-12 11 -28 20 -35 20 -7 0 -13 4 -13 9 0 5 -13 14 -30 21 -16 7 -30 16 -30 21
0 5 -7 9 -16 9 -9 0 -24 8 -33 18 -9 9 -28 23 -43 31 -16 8 -28 18 -28 23 0 4
-8 8 -18 8 -10 0 -24 9 -32 20 -8 11 -22 20 -32 20 -10 0 -18 4 -18 8 0 5 -12
15 -27 23 -16 8 -37 22 -47 32 -11 9 -26 17 -33 17 -7 0 -13 4 -13 9 0 5 -13
14 -30 21 -16 7 -30 16 -30 20 0 4 -13 13 -30 20 -16 7 -30 16 -30 21 0 5 -9
9 -20 9 -11 0 -20 5 -20 10 0 6 -9 10 -20 10 -11 0 -20 5 -20 10 0 6 -9 10
-20 10 -11 0 -20 5 -20 10 0 6 -9 10 -20 10 -11 0 -20 5 -20 10 0 6 -13 10
-30 10 -16 0 -30 5 -30 10 0 6 -10 10 -23 10 -13 0 -27 4 -33 9 -22 21 -406
40 -434 21z m-17 -1154 c15 -13 27 -28 27 -35 0 -6 6 -20 12 -31 10 -16 10
-24 0 -40 -6 -11 -12 -24 -12 -30 0 -6 -12 -22 -26 -37 -20 -20 -36 -25 -75
-26 -28 -1 -53 4 -57 9 -4 6 -15 13 -24 17 -10 3 -18 13 -18 22 0 8 -4 15 -10
15 -5 0 -10 20 -10 43 0 35 6 51 33 80 29 33 37 37 82 37 38 0 56 -6 78 -24z
m1088 -6 c49 -51 50 -103 3 -159 -23 -28 -32 -31 -80 -31 -44 0 -59 5 -77 23
-35 35 -47 81 -34 120 20 56 51 76 116 77 36 0 49 -5 72 -30z"/>
<path d="M1503 2183 c-23 -4 -23 -5 -23 -194 l0 -189 50 0 50 0 0 189 c0 215
2 209 -77 194z"/>
<path d="M2615 2182 c-3 -3 -5 -90 -5 -194 l0 -188 45 0 45 0 0 190 c0 105 -3
190 -7 191 -35 5 -73 6 -78 1z"/>
<path d="M2782 2182 c-23 -7 -23 -8 -23 -182 0 -96 0 -181 1 -187 0 -8 15 -13
40 -13 l40 0 0 189 c0 163 -2 190 -16 195 -9 3 -16 6 -17 5 -1 -1 -12 -4 -25
-7z"/>
<path d="M2180 2141 c0 -30 -4 -40 -20 -44 -26 -7 -27 -53 -1 -66 16 -9 19
-24 20 -108 1 -53 7 -103 13 -110 6 -7 32 -13 59 -13 47 0 49 1 49 28 0 16 -8
32 -20 40 -17 10 -20 23 -20 81 0 61 3 70 20 76 15 5 20 15 20 41 0 27 -4 34
-20 34 -17 0 -20 7 -20 40 l0 40 -40 0 c-40 0 -40 0 -40 -39z"/>
<path d="M3180 2140 c0 -33 -3 -40 -20 -40 -16 0 -20 -7 -20 -34 0 -26 5 -36
20 -41 18 -6 20 -15 20 -104 0 -62 4 -101 12 -109 7 -7 34 -12 60 -12 46 0 48
1 48 29 0 20 -6 30 -20 34 -18 5 -20 14 -20 82 0 68 2 77 20 82 15 4 20 14 20
39 0 27 -4 34 -20 34 -17 0 -20 7 -20 40 l0 40 -40 0 -40 0 0 -40z"/>
<path d="M1635 2078 c-3 -13 -4 -79 -3 -148 l3 -125 43 -3 42 -3 0 109 c0 88
3 111 15 116 39 14 45 -2 45 -115 l0 -109 40 0 40 0 0 136 c0 119 -2 139 -17
150 -23 17 -100 18 -106 2 -4 -10 -7 -10 -18 0 -7 6 -28 12 -46 12 -26 0 -34
-5 -38 -22z"/>
<path d="M1931 2069 c-17 -17 -31 -41 -31 -54 0 -28 62 -95 88 -95 26 -1 54
-26 50 -47 -5 -28 -36 -28 -49 1 -8 17 -20 26 -35 26 -59 0 -71 -33 -29 -78
22 -23 33 -27 84 -27 80 0 111 27 111 95 0 50 -23 81 -71 93 -35 9 -63 32 -55
45 11 19 40 14 54 -8 8 -13 23 -20 42 -20 25 0 30 4 30 25 0 14 -11 37 -25 50
-20 21 -34 25 -79 25 -48 0 -58 -4 -85 -31z"/>
<path d="M2363 2077 c-13 -13 -23 -35 -23 -50 0 -24 4 -27 36 -27 27 0 37 5
41 20 6 21 37 27 48 10 12 -19 -6 -50 -29 -50 -53 0 -116 -53 -116 -98 0 -37
29 -79 59 -85 32 -7 72 1 84 17 6 8 10 7 14 -1 2 -8 22 -13 44 -13 l39 0 0
116 c0 160 -15 184 -115 183 -48 0 -64 -5 -82 -22z m107 -167 c0 -32 -11 -50
-31 -50 -25 0 -26 48 -2 66 21 15 33 9 33 -16z"/>
<path d="M2925 2087 c-11 -7 -21 -12 -22 -12 0 0 -4 -17 -8 -37 l-7 -38 36 0
c25 0 40 6 48 20 19 29 48 26 48 -5 0 -14 -6 -27 -12 -29 -77 -21 -105 -33
-115 -46 -16 -20 -16 -100 0 -121 19 -25 72 -33 107 -16 16 9 30 11 30 6 0 -5
19 -9 43 -9 l43 0 -3 98 c-5 155 -10 177 -39 191 -32 14 -123 13 -149 -2z m95
-187 c0 -32 -4 -40 -19 -40 -10 0 -25 7 -32 16 -12 14 -9 20 16 40 17 13 31
24 33 24 1 0 2 -18 2 -40z"/>
<path d="M3370 2077 c-43 -38 -66 -147 -41 -195 5 -9 14 -29 19 -44 31 -77
212 -46 212 37 0 23 -4 25 -40 25 -27 0 -40 -4 -40 -14 0 -20 -25 -37 -44 -30
-10 4 -16 18 -16 40 l0 34 70 0 70 0 0 50 c0 87 -30 119 -110 120 -43 0 -60
-5 -80 -23z m108 -61 c4 -20 -13 -36 -40 -36 -13 0 -18 8 -18 31 0 27 3 30 27
27 18 -2 29 -10 31 -22z"/>
<path d="M3600 1964 c0 -110 3 -138 16 -151 19 -19 87 -21 109 -3 11 9 15 9
15 1 0 -8 15 -11 43 -9 l42 3 3 125 c4 164 2 172 -46 168 l-37 -3 -3 -107 c-2
-77 -7 -109 -17 -118 -11 -9 -18 -9 -30 3 -11 12 -15 40 -15 121 l0 106 -40 0
-40 0 0 -136z"/>
<path d="M3880 1950 l0 -150 39 0 39 0 4 95 c3 102 15 124 66 125 19 0 22 5
22 35 0 42 -20 54 -57 34 -21 -11 -27 -11 -30 -1 -3 7 -21 12 -44 12 l-39 0 0
-150z"/>
<path d="M2301 1559 c-31 -33 -28 -59 7 -59 27 0 67 38 67 64 0 22 -52 18 -74
-5z"/>
<path d="M2575 1572 c-13 -9 -35 -49 -35 -62 0 -5 13 -10 28 -10 30 0 72 38
72 65 0 16 -46 21 -65 7z"/>
<path d="M2866 1544 c-3 -9 -6 -94 -6 -190 l0 -174 24 -6 c13 -3 35 -4 47 -2
l24 3 3 193 2 192 -44 0 c-31 0 -46 -5 -50 -16z"/>
<path d="M3020 1364 l0 -195 43 3 42 3 3 70 c2 39 7 74 11 78 4 4 20 3 34 -2
25 -10 27 -14 27 -75 0 -70 5 -76 66 -76 l34 0 0 61 c0 60 -10 90 -38 118 -12
12 -12 16 -1 26 50 39 52 104 5 151 -34 34 -34 34 -130 34 l-96 0 0 -196z
m144 120 c16 -6 21 -39 10 -68 -4 -9 -18 -16 -34 -16 -22 0 -29 5 -33 27 -9
49 15 73 57 57z"/>
<path d="M3305 1550 c-3 -5 -3 -15 1 -22 4 -7 12 -33 16 -58 17 -90 27 -136
38 -180 6 -25 14 -61 18 -80 7 -33 10 -35 51 -38 74 -5 88 2 94 50 7 50 21
126 36 186 18 69 30 126 31 140 0 16 -86 17 -96 1 -6 -10 -12 -44 -30 -184
-12 -90 -21 -75 -43 70 -20 128 -18 125 -67 125 -23 0 -46 -4 -49 -10z"/>
<path d="M3620 1371 c0 -163 2 -190 16 -195 9 -3 58 -6 109 -6 83 0 96 2 105
19 19 36 2 51 -54 51 -62 0 -74 7 -82 47 -5 25 -2 33 16 43 11 6 33 11 48 10
56 -4 62 -1 62 29 0 34 -14 41 -75 41 -49 0 -60 10 -51 46 6 22 11 24 65 24
56 0 59 1 64 27 9 50 3 53 -114 53 l-109 0 0 -189z"/>
<path d="M3954 1530 c-6 -26 -11 -30 -40 -30 -27 0 -34 -4 -34 -19 0 -11 9
-23 20 -26 22 -7 26 -35 8 -53 -9 -9 -8 -16 6 -30 16 -16 18 -16 37 7 20 25
49 23 49 -4 0 -18 26 -20 44 -2 11 10 10 17 -6 40 l-20 27 31 11 c20 7 31 18
31 30 0 16 -7 19 -40 19 -38 0 -40 2 -40 30 0 23 -4 30 -20 30 -15 0 -22 -9
-26 -30z"/>
<path d="M1768 1463 c-16 -8 -28 -21 -28 -29 0 -7 -4 -14 -10 -14 -6 0 -10
-35 -10 -86 0 -114 21 -154 82 -154 19 0 39 5 46 12 9 9 12 5 12 -19 0 -38
-21 -48 -60 -28 -65 34 -103 4 -56 -43 24 -24 33 -27 96 -26 110 3 120 23 120
235 l0 149 -66 -1 c-37 -1 -70 3 -77 10 -13 13 -14 13 -49 -6z m93 -95 c4 -88
-6 -127 -32 -128 -8 0 -29 48 -29 68 0 9 5 34 11 55 7 26 15 37 29 37 16 0 20
-7 21 -32z"/>
<path d="M2142 1468 c-6 -6 -40 -10 -76 -9 l-66 1 0 -140 c0 -139 0 -140 24
-146 56 -14 61 -7 67 98 3 54 7 100 10 102 2 2 20 8 39 13 29 8 35 14 38 39 3
35 -18 60 -36 42z"/>
<path d="M2252 1460 c-23 -11 -45 -27 -48 -37 -3 -10 -10 -26 -15 -35 -19 -37
-2 -166 26 -193 65 -64 204 -29 205 52 0 42 -67 42 -85 1 -6 -13 -19 -23 -30
-23 -16 0 -21 8 -23 38 l-3 37 70 0 71 0 0 55 c0 64 -21 94 -79 114 -41 13
-36 14 -89 -9z m74 -54 c24 -25 17 -46 -16 -46 -22 0 -30 5 -30 18 0 16 17 42
28 42 2 0 10 -6 18 -14z"/>
<path d="M2527 1465 c-21 -7 -45 -21 -52 -32 -29 -39 -31 -197 -2 -233 59 -72
207 -38 207 48 0 11 -6 22 -13 25 -21 8 -67 -4 -67 -18 0 -7 -7 -18 -15 -25
-21 -18 -45 4 -45 41 l0 29 70 0 70 0 0 58 c0 48 -4 62 -22 79 -17 15 -84 46
-92 43 -1 -1 -18 -7 -39 -15z m61 -57 c7 -7 12 -20 12 -30 0 -13 -8 -18 -30
-18 -22 0 -30 5 -30 18 0 17 18 42 30 42 3 0 11 -5 18 -12z"/>
<path d="M1502 1463 c-20 -4 -62 -55 -62 -75 0 -16 88 -9 94 7 3 8 15 15 26
15 14 0 20 -7 20 -23 0 -25 -33 -47 -71 -47 -62 0 -93 -105 -45 -157 20 -22
29 -24 57 -18 19 3 59 7 89 8 l55 2 0 127 c0 151 -5 160 -87 164 -29 1 -63 0
-76 -3z m78 -189 c0 -14 -7 -32 -15 -40 -13 -14 -17 -14 -30 0 -18 18 -19 32
-2 51 21 24 47 18 47 -11z"/>
</g>
</svg>
