<svg version="1.1" id="Layer_1" xmlns="http://www.w3.org/2000/svg" xmlns:xlink="http://www.w3.org/1999/xlink" x="0px" y="0px"
	 width="100%" viewBox="0 0 837 242" enable-background="new 0 0 837 242" xml:space="preserve">
<path fill="#FDFDFD" opacity="1.000000" stroke="none" 
	d="
M566.000000,243.000000 
	C377.376923,243.000000 189.253830,243.000000 1.065376,243.000000 
	C1.065376,162.395645 1.065376,81.791229 1.065376,1.093402 
	C280.000000,1.093402 559.000000,1.093402 837.968384,1.093402 
	C837.968384,81.746147 837.968384,162.373077 837.968384,243.000000 
	C747.457886,243.000000 656.978943,243.000000 566.000000,243.000000 
M458.990082,92.978310 
	C458.990082,92.978310 458.936859,92.896530 459.608429,92.872040 
	C460.688171,92.036339 461.767914,91.200638 463.572968,89.803566 
	C461.270203,88.235107 459.633148,87.120056 457.748962,85.535889 
	C457.304871,85.261177 456.860748,84.986465 456.165710,84.096710 
	C455.106445,83.405510 454.047211,82.714302 452.714539,81.549713 
	C452.238190,81.303581 451.761841,81.057457 451.027222,80.181366 
	C447.804108,78.225471 444.770660,75.804932 441.323578,74.397598 
	C429.205627,69.450279 416.820679,66.970909 403.391418,72.128929 
	C402.606201,72.458435 401.820984,72.787941 400.283783,73.031761 
	C396.108765,75.302231 391.933746,77.572708 387.376251,79.952927 
	C387.376251,79.952927 387.054321,80.186760 386.393494,80.154099 
	C385.497925,81.039162 384.602356,81.924225 383.347595,82.923592 
	C383.347595,82.923592 383.050140,83.155136 382.364990,83.137878 
	C379.859711,85.297607 377.354462,87.457344 374.278198,90.109322 
	C376.304413,91.476479 377.566193,92.327843 379.002441,93.005951 
	C379.002441,93.005951 378.825348,93.174789 378.960052,93.824654 
	C380.322388,94.838646 381.684723,95.852638 383.450958,97.224564 
	C383.895142,97.527245 384.339325,97.829926 384.950104,98.775070 
	C385.969421,99.510605 386.988739,100.246140 388.383942,101.335457 
	C388.799561,101.639122 389.215149,101.942787 389.871826,102.861343 
	C390.892609,103.612503 391.913391,104.363655 393.248169,105.609589 
	C394.040863,106.159225 394.833588,106.708855 395.911285,107.926010 
	C399.796356,110.820282 401.153473,107.028137 403.734406,104.966385 
	C404.156982,104.643951 404.579590,104.321518 405.631226,103.970558 
	C406.255859,103.450836 406.880493,102.931122 408.133179,102.303085 
	C408.724579,102.072479 409.316010,101.841873 410.629883,101.738632 
	C412.412842,101.135506 414.195801,100.532372 416.818542,99.989395 
	C418.220245,99.961586 419.621918,99.933777 421.488403,100.399376 
	C422.359589,100.447533 423.230774,100.495689 424.714111,100.782524 
	C425.147705,100.833855 425.581299,100.885178 426.401703,101.471062 
	C427.630402,101.869148 428.859100,102.267235 430.588776,103.037971 
	C431.326660,103.404816 432.064514,103.771660 433.129578,104.710640 
	C434.421570,105.468704 435.713562,106.226768 437.268860,107.196968 
	C437.268860,107.196968 437.595367,107.284920 437.904144,107.896790 
	C441.356567,110.118210 442.707275,107.374741 444.819336,104.906357 
	C445.533112,104.241280 446.246887,103.576202 447.623352,102.887291 
	C448.490967,101.973564 449.358582,101.059837 450.793701,99.958542 
	C451.523712,99.288445 452.253754,98.618355 453.656372,97.908508 
	C455.405579,96.249817 457.154755,94.591118 458.990082,92.978310 
M641.480225,143.004333 
	C642.534180,143.820068 643.724243,144.509583 644.618164,145.473709 
	C648.209290,149.346909 651.123779,149.133301 655.463074,145.690872 
	C674.648499,130.470596 694.216919,115.732941 713.661316,100.839729 
	C714.640076,100.090111 715.755615,99.519196 717.566528,98.393051 
	C717.566528,143.127090 717.566528,187.020676 717.566528,231.072037 
	C730.309937,231.072037 742.517944,231.072037 754.763000,231.072037 
	C754.763000,161.484558 754.763000,92.272820 754.763000,22.108423 
	C752.549072,23.704838 750.967224,24.783676 749.450989,25.947952 
	C718.129761,49.998363 686.752136,73.976387 655.577942,98.215965 
	C651.477661,101.404144 648.995850,101.725456 644.669983,98.351944 
	C613.399170,73.965607 581.866028,49.915596 550.403870,25.774870 
	C548.924561,24.639807 547.330505,23.654387 545.292236,22.258432 
	C545.292236,92.451836 545.292236,161.681564 545.292236,231.051422 
	C557.808716,231.051422 570.032837,231.051422 582.935425,231.051422 
	C582.935425,186.839233 582.935425,143.027054 582.935425,98.044113 
	C602.931030,113.391869 621.929138,127.973991 641.480225,143.004333 
M283.054535,231.443649 
	C295.320801,231.443649 307.587067,231.443649 320.636871,231.443649 
	C284.823853,161.246140 249.457993,91.925095 213.603638,21.646534 
	C177.702118,92.038155 142.352737,161.347198 106.598251,231.450546 
	C119.732079,231.450546 131.863129,231.296631 143.985901,231.545746 
	C147.553848,231.619064 149.240402,230.306946 150.782883,227.269913 
	C170.395020,188.654968 190.130814,150.102829 209.844025,111.539238 
	C210.929810,109.415161 212.093521,107.330910 213.649170,104.429474 
	C215.063202,107.088821 216.008072,108.805878 216.899155,110.550400 
	C236.674057,149.264587 256.442596,187.982010 276.214111,226.697922 
	C277.482239,229.181122 278.339172,232.192581 283.054535,231.443649 
M442.122406,228.646027 
	C482.057770,218.238403 508.544739,193.391556 519.755493,153.727615 
	C528.351013,123.316322 522.841003,94.580803 505.273407,67.616554 
	C495.092163,76.074432 485.535278,84.013618 476.066895,91.879311 
	C495.869690,129.350693 480.774109,161.240234 462.432770,176.977753 
	C439.749084,196.441162 407.122009,198.802414 382.504425,182.753845 
	C369.803741,174.474075 360.637817,163.259918 355.600952,148.961700 
	C348.675293,129.301743 351.113312,110.326279 361.180084,92.108849 
	C351.267029,83.879303 341.721771,75.955070 332.173187,68.028099 
	C317.414795,86.380470 310.250519,119.871529 315.361633,145.134781 
	C327.441620,204.843628 381.653717,240.870239 442.122406,228.646027 
M493.946686,53.612511 
	C445.031952,3.863669 370.355530,17.595631 338.763428,59.758530 
	C347.459686,67.113029 356.125336,74.579933 365.031219,81.748329 
	C365.873901,82.426590 368.782227,81.799805 369.786255,80.815102 
	C377.262726,73.482605 385.598877,67.423515 395.525116,64.065536 
	C422.098785,55.075859 445.715057,60.387344 465.989624,79.735001 
	C468.966644,82.575882 470.909729,83.315269 474.189392,80.374039 
	C480.748383,74.491791 487.392426,68.658691 494.416687,63.355385 
	C500.045532,59.105598 498.033630,57.784206 493.946686,53.612511 
M430.727356,123.993629 
	C430.903412,117.221313 427.982147,112.491577 422.513824,110.695251 
	C417.477875,109.040955 412.109497,110.651543 409.133820,114.793915 
	C406.121674,118.987129 405.867340,123.599815 408.236176,127.987892 
	C410.657318,132.472916 414.876190,134.480240 419.977905,133.981293 
	C425.600098,133.431442 428.909119,130.001572 430.727356,123.993629 
z"/>
<path fill="#040404" opacity="1.000000" stroke="none" 
	d="
M641.203735,142.780212 
	C621.929138,127.973991 602.931030,113.391869 582.935425,98.044113 
	C582.935425,143.027054 582.935425,186.839233 582.935425,231.051422 
	C570.032837,231.051422 557.808716,231.051422 545.292236,231.051422 
	C545.292236,161.681564 545.292236,92.451836 545.292236,22.258432 
	C547.330505,23.654387 548.924561,24.639807 550.403870,25.774870 
	C581.866028,49.915596 613.399170,73.965607 644.669983,98.351944 
	C648.995850,101.725456 651.477661,101.404144 655.577942,98.215965 
	C686.752136,73.976387 718.129761,49.998363 749.450989,25.947952 
	C750.967224,24.783676 752.549072,23.704838 754.763000,22.108423 
	C754.763000,92.272820 754.763000,161.484558 754.763000,231.072037 
	C742.517944,231.072037 730.309937,231.072037 717.566528,231.072037 
	C717.566528,187.020676 717.566528,143.127090 717.566528,98.393051 
	C715.755615,99.519196 714.640076,100.090111 713.661316,100.839729 
	C694.216919,115.732941 674.648499,130.470596 655.463074,145.690872 
	C651.123779,149.133301 648.209290,149.346909 644.618164,145.473709 
	C643.724243,144.509583 642.534180,143.820068 641.203735,142.780212 
z"/>
<path fill="#040404" opacity="1.000000" stroke="none" 
	d="
M282.618225,231.442780 
	C278.339172,232.192581 277.482239,229.181122 276.214111,226.697922 
	C256.442596,187.982010 236.674057,149.264587 216.899155,110.550400 
	C216.008072,108.805878 215.063202,107.088821 213.649170,104.429474 
	C212.093521,107.330910 210.929810,109.415161 209.844025,111.539238 
	C190.130814,150.102829 170.395020,188.654968 150.782883,227.269913 
	C149.240402,230.306946 147.553848,231.619064 143.985901,231.545746 
	C131.863129,231.296631 119.732079,231.450546 106.598251,231.450546 
	C142.352737,161.347198 177.702118,92.038155 213.603638,21.646534 
	C249.457993,91.925095 284.823853,161.246140 320.636871,231.443649 
	C307.587067,231.443649 295.320801,231.443649 282.618225,231.442780 
z"/>
<path fill="#040404" opacity="1.000000" stroke="none" 
	d="
M441.716980,228.740372 
	C381.653717,240.870239 327.441620,204.843628 315.361633,145.134781 
	C310.250519,119.871529 317.414795,86.380470 332.173187,68.028099 
	C341.721771,75.955070 351.267029,83.879303 361.180084,92.108849 
	C351.113312,110.326279 348.675293,129.301743 355.600952,148.961700 
	C360.637817,163.259918 369.803741,174.474075 382.504425,182.753845 
	C407.122009,198.802414 439.749084,196.441162 462.432770,176.977753 
	C480.774109,161.240234 495.869690,129.350693 476.066895,91.879311 
	C485.535278,84.013618 495.092163,76.074432 505.273407,67.616554 
	C522.841003,94.580803 528.351013,123.316322 519.755493,153.727615 
	C508.544739,193.391556 482.057770,218.238403 441.716980,228.740372 
z"/>
<path fill="#9CC45B" opacity="1.000000" stroke="none" 
	d="
M494.202850,53.868095 
	C498.033630,57.784206 500.045532,59.105598 494.416687,63.355385 
	C487.392426,68.658691 480.748383,74.491791 474.189392,80.374039 
	C470.909729,83.315269 468.966644,82.575882 465.989624,79.735001 
	C445.715057,60.387344 422.098785,55.075859 395.525116,64.065536 
	C385.598877,67.423515 377.262726,73.482605 369.786255,80.815102 
	C368.782227,81.799805 365.873901,82.426590 365.031219,81.748329 
	C356.125336,74.579933 347.459686,67.113029 338.763428,59.758530 
	C370.355530,17.595631 445.031952,3.863669 494.202850,53.868095 
z"/>
<path fill="#9AC457" opacity="1.000000" stroke="none" 
	d="
M421.023621,99.905968 
	C419.621918,99.933777 418.220245,99.961586 416.178284,99.708054 
	C413.661163,100.154900 411.784271,100.883072 409.907410,101.611252 
	C409.316010,101.841873 408.724579,102.072479 407.458374,102.254684 
	C406.189789,102.803879 405.595978,103.401474 405.002197,103.999084 
	C404.579590,104.321518 404.156982,104.643951 403.112793,105.006821 
	C400.202911,105.784325 397.914612,106.521408 395.626312,107.258484 
	C394.833588,106.708855 394.040863,106.159225 393.081177,104.994385 
	C391.819702,103.668266 390.725250,102.957352 389.630768,102.246445 
	C389.215149,101.942787 388.799561,101.639122 388.169250,100.808662 
	C386.897522,99.565445 385.840546,98.849022 384.783539,98.132599 
	C384.339325,97.829926 383.895142,97.527245 383.210846,96.707916 
	C381.588928,95.185768 380.207153,94.180283 378.825348,93.174789 
	C378.825348,93.174789 379.002441,93.005951 378.946594,92.731628 
	C379.283569,90.771133 379.441711,88.980057 380.135345,87.428337 
	C380.827789,85.879166 382.056519,84.569695 383.050171,83.155144 
	C383.050140,83.155136 383.347595,82.923592 383.882751,82.910347 
	C385.296692,81.993652 386.175507,81.090202 387.054321,80.186760 
	C387.054321,80.186760 387.376251,79.952927 387.948822,79.931885 
	C392.692841,77.646378 396.864288,75.381912 401.035767,73.117447 
	C401.820984,72.787941 402.606201,72.458435 403.985535,72.388603 
	C406.183289,72.545998 407.788757,72.466507 409.390228,72.337112 
	C413.958618,71.968025 418.660614,70.703995 423.063843,71.384674 
	C431.463196,72.683098 439.950043,74.287460 447.160889,79.480728 
	C448.276520,80.284210 449.897980,80.385368 451.285492,80.811325 
	C451.761841,81.057457 452.238190,81.303581 452.883881,82.145645 
	C454.174377,83.398293 455.295502,84.055023 456.416656,84.711754 
	C456.860748,84.986465 457.304871,85.261177 457.893829,86.115433 
	C458.338074,88.762169 458.637482,90.829346 458.936859,92.896530 
	C458.936859,92.896530 458.990082,92.978310 458.590332,92.964111 
	C456.454956,94.616020 454.719360,96.282127 452.983765,97.948242 
	C452.253754,98.618355 451.523712,99.288445 450.154785,100.025116 
	C448.664093,101.031487 447.812347,101.971291 446.960632,102.911110 
	C446.246887,103.576202 445.533112,104.241280 444.162720,105.010948 
	C441.535889,105.838669 439.565613,106.561798 437.595367,107.284927 
	C437.595367,107.284920 437.268860,107.196968 437.102417,106.728180 
	C435.558136,105.552429 434.180267,104.845467 432.802399,104.138504 
	C432.064514,103.771660 431.326660,103.404816 430.262756,102.558762 
	C428.629456,101.698540 427.322174,101.317528 426.014893,100.936508 
	C425.581299,100.885178 425.147705,100.833855 424.317108,100.387375 
	C422.954620,99.963478 421.989105,99.934723 421.023621,99.905968 
z"/>
<path fill="#A0C461" opacity="1.000000" stroke="none" 
	d="
M430.625305,124.372604 
	C428.909119,130.001572 425.600098,133.431442 419.977905,133.981293 
	C414.876190,134.480240 410.657318,132.472916 408.236176,127.987892 
	C405.867340,123.599815 406.121674,118.987129 409.133820,114.793915 
	C412.109497,110.651543 417.477875,109.040955 422.513824,110.695251 
	C427.982147,112.491577 430.903412,117.221313 430.625305,124.372604 
z"/>
<path fill="#B1CC82" opacity="1.000000" stroke="none" 
	d="
M451.156372,80.496346 
	C449.897980,80.385368 448.276520,80.284210 447.160889,79.480728 
	C439.950043,74.287460 431.463196,72.683098 423.063843,71.384674 
	C418.660614,70.703995 413.958618,71.968025 409.390228,72.337112 
	C407.788757,72.466507 406.183289,72.545998 404.306274,72.382034 
	C416.820679,66.970909 429.205627,69.450279 441.323578,74.397598 
	C444.770660,75.804932 447.804108,78.225471 451.156372,80.496346 
z"/>
<path fill="#B1CC82" opacity="1.000000" stroke="none" 
	d="
M382.707581,83.146515 
	C382.056519,84.569695 380.827789,85.879166 380.135345,87.428337 
	C379.441711,88.980057 379.283569,90.771133 378.859375,92.818253 
	C377.566193,92.327843 376.304413,91.476479 374.278198,90.109322 
	C377.354462,87.457344 379.859711,85.297607 382.707581,83.146515 
z"/>
<path fill="#B1CC82" opacity="1.000000" stroke="none" 
	d="
M400.659790,73.074600 
	C396.864288,75.381912 392.692841,77.646378 388.140076,79.877014 
	C391.933746,77.572708 396.108765,75.302231 400.659790,73.074600 
z"/>
<path fill="#B1CC82" opacity="1.000000" stroke="none" 
	d="
M459.272644,92.884285 
	C458.637482,90.829346 458.338074,88.762169 458.017395,86.349991 
	C459.633148,87.120056 461.270203,88.235107 463.572968,89.803566 
	C461.767914,91.200638 460.688171,92.036339 459.272644,92.884285 
z"/>
<path fill="#B1CC82" opacity="1.000000" stroke="none" 
	d="
M395.768799,107.592247 
	C397.914612,106.521408 400.202911,105.784325 402.863953,105.101875 
	C401.153473,107.028137 399.796356,110.820282 395.768799,107.592247 
z"/>
<path fill="#B1CC82" opacity="1.000000" stroke="none" 
	d="
M453.320068,97.928375 
	C454.719360,96.282127 456.454956,94.616020 458.547241,92.941170 
	C457.154755,94.591118 455.405579,96.249817 453.320068,97.928375 
z"/>
<path fill="#B1CC82" opacity="1.000000" stroke="none" 
	d="
M437.749756,107.590858 
	C439.565613,106.561798 441.535889,105.838669 443.900635,105.153458 
	C442.707275,107.374741 441.356567,110.118210 437.749756,107.590858 
z"/>
<path fill="#B1CC82" opacity="1.000000" stroke="none" 
	d="
M410.268646,101.674942 
	C411.784271,100.883072 413.661163,100.154900 415.758392,99.677979 
	C414.195801,100.532372 412.412842,101.135506 410.268646,101.674942 
z"/>
<path fill="#B1CC82" opacity="1.000000" stroke="none" 
	d="
M378.892700,93.499725 
	C380.207153,94.180283 381.588928,95.185768 383.008911,96.528946 
	C381.684723,95.852638 380.322388,94.838646 378.892700,93.499725 
z"/>
<path fill="#B1CC82" opacity="1.000000" stroke="none" 
	d="
M426.208313,101.203781 
	C427.322174,101.317528 428.629456,101.698540 430.012268,102.372444 
	C428.859100,102.267235 427.630402,101.869148 426.208313,101.203781 
z"/>
<path fill="#B1CC82" opacity="1.000000" stroke="none" 
	d="
M432.966003,104.424576 
	C434.180267,104.845467 435.558136,105.552429 436.970764,106.622108 
	C435.713562,106.226768 434.421570,105.468704 432.966003,104.424576 
z"/>
<path fill="#B1CC82" opacity="1.000000" stroke="none" 
	d="
M384.866821,98.453827 
	C385.840546,98.849022 386.897522,99.565445 387.981293,100.631775 
	C386.988739,100.246140 385.969421,99.510605 384.866821,98.453827 
z"/>
<path fill="#B1CC82" opacity="1.000000" stroke="none" 
	d="
M386.723907,80.170425 
	C386.175507,81.090202 385.296692,81.993652 384.062317,82.853195 
	C384.602356,81.924225 385.497925,81.039162 386.723907,80.170425 
z"/>
<path fill="#B1CC82" opacity="1.000000" stroke="none" 
	d="
M447.291992,102.899193 
	C447.812347,101.971291 448.664093,101.031487 449.871033,100.118896 
	C449.358582,101.059837 448.490967,101.973564 447.291992,102.899193 
z"/>
<path fill="#B1CC82" opacity="1.000000" stroke="none" 
	d="
M389.751282,102.553894 
	C390.725250,102.957352 391.819702,103.668266 392.924194,104.746994 
	C391.913391,104.363655 390.892609,103.612503 389.751282,102.553894 
z"/>
<path fill="#B1CC82" opacity="1.000000" stroke="none" 
	d="
M456.291199,84.404228 
	C455.295502,84.055023 454.174377,83.398293 453.020569,82.382332 
	C454.047211,82.714302 455.106445,83.405510 456.291199,84.404228 
z"/>
<path fill="#B1CC82" opacity="1.000000" stroke="none" 
	d="
M421.256012,100.152672 
	C421.989105,99.934723 422.954620,99.963478 424.011047,100.268036 
	C423.230774,100.495689 422.359589,100.447533 421.256012,100.152672 
z"/>
<path fill="#B1CC82" opacity="1.000000" stroke="none" 
	d="
M405.316711,103.984818 
	C405.595978,103.401474 406.189789,102.803879 407.144348,102.308838 
	C406.880493,102.931122 406.255859,103.450836 405.316711,103.984818 
z"/>
</svg>