<?xml version="1.0" encoding="utf-8"?>
<!-- Generator: Adobe Illustrator 24.2.1, SVG Export Plug-In . SVG Version: 6.00 Build 0)  -->
<svg version="1.1" xmlns="http://www.w3.org/2000/svg" xmlns:xlink="http://www.w3.org/1999/xlink" x="0px" y="0px"
	 viewBox="0 0 841.9 595.3" style="enable-background:new 0 0 841.9 595.3;" xml:space="preserve">
<style type="text/css">
	.st0{fill:#A3BF3A;}
	.st1{fill:#5A5A59;}
	.st2{fill:#FFFFFF;}
</style>
<g id="bakckground">
</g>
<g id="Black_letters">
	<g id="XMLID_1_">
		<path id="XMLID_597_" d="M320.6,357.1h-38.3l-17.5-34.2l-41.8-82l-41.8,82l-17.5,34.2h-38.3l17.5-34.2L223,165.7l80.1,157.2
			L320.6,357.1z"/>
		<path id="XMLID_592_" d="M716.5,165.7v191.4h-34.2V235.2l-33.6,25.7l-27.9,21.6l-27.9-21.6l-33.6-25.7v121.9h-34.2V165.7
			l34.2,26.2l61.5,47.3l61.5-47.3L716.5,165.7z"/>
		<path id="XMLID_980_" d="M488.8,207.6l-26.8,22.3c5.6,9.2,8.9,19.9,8.9,31.5c0,33.6-27.3,60.9-61,60.9
			c-33.6,0-60.9-27.3-60.9-60.9c0-11.5,3.2-22.2,8.8-31.3l-26.8-22.3c-10.4,15.3-16.6,33.7-16.6,53.6c0,52.7,42.9,95.6,95.6,95.6
			c52.7,0,95.6-42.9,95.6-95.6C505.5,241.5,499.3,223,488.8,207.6z"/>
	</g>
</g>
<g id="Green_WIFI_Shape">
	<path id="XMLID_1054_" class="st0" d="M409.8,200.5c18.7,0,35.5,8.5,46.7,21.9l21.7-18.1l4.9-4.1c-17.6-21-43.9-34.3-73.3-34.3
		c-29.4,0-55.8,13.4-73.3,34.3l4.9,4.1l21.7,18.1C374.3,209,391.1,200.5,409.8,200.5z"/>
	<path id="XMLID_983_" class="st0" d="M449.8,228L429,245.4c-7.6-6.3-13.3-8.5-19.1-8.5s-11.5,2.2-18.8,8.8l-20.8-17.4
		c12.5-12.7,25.7-18.3,39.6-18.3C423.8,209.9,437,215.6,449.8,228z"/>
	<path id="XMLID_984_" class="st0" d="M449.8,228L429,245.4c-7.6-6.3-13.3-8.5-19.1-8.5s-11.5,2.2-18.8,8.8l0,0l-20.8-17.4l0,0
		c12.5-12.7,25.7-18.3,39.6-18.3C423.8,209.9,437,215.6,449.8,228z"/>
	<circle id="XMLID_883_" class="st0" cx="410" cy="257.3" r="11"/>
</g>
<g id="Slogon">
	<g id="XMLID_908_">
		<path id="XMLID_909_" class="st1" d="M154.9,384.1v6.2H144V419h-7.6v-28.7h-10.9v-6.2H154.9z"/>
		<path id="XMLID_911_" class="st1" d="M172.5,393.7c1.9,0.8,3.4,2.1,4.6,3.8c1.1,1.5,1.8,3.3,2.1,5.3c0.2,1.2,0.3,2.9,0.2,5.1H160
			c0.1,2.6,1,4.4,2.8,5.4c1.1,0.6,2.4,1,3.9,1c1.6,0,2.9-0.4,3.9-1.2c0.5-0.4,1-1,1.4-1.8h7.2c-0.2,1.5-1.1,3.1-2.6,4.7
			c-2.4,2.5-5.8,3.8-10.1,3.8c-3.6,0-6.7-1.1-9.5-3.2s-4.1-5.6-4.1-10.3c0-4.5,1.2-7.9,3.7-10.3c2.5-2.4,5.7-3.6,9.6-3.6
			C168.5,392.5,170.6,392.9,172.5,393.7z M162,399.5c-1,1-1.6,2.3-1.9,4h12.1c-0.1-1.8-0.8-3.1-1.9-4.1c-1.1-0.9-2.5-1.4-4.2-1.4
			C164.4,398.1,163,398.6,162,399.5z"/>
		<path id="XMLID_922_" class="st1" d="M199.1,402.5c-0.1-1-0.5-1.8-1-2.6c-0.8-1-2-1.6-3.7-1.6c-2.4,0-4,1.1-4.9,3.4
			c-0.5,1.2-0.7,2.8-0.7,4.8c0,1.9,0.2,3.4,0.7,4.6c0.8,2.1,2.4,3.2,4.7,3.2c1.6,0,2.8-0.4,3.5-1.3c0.7-0.9,1.1-2,1.3-3.3h7.2
			c-0.2,2.1-0.9,4-2.3,5.8c-2.2,3-5.5,4.4-9.8,4.4s-7.5-1.2-9.5-3.7c-2-2.5-3.1-5.7-3.1-9.6c0-4.4,1.1-7.9,3.4-10.3
			c2.3-2.5,5.4-3.7,9.3-3.7c3.4,0,6.1,0.7,8.3,2.2c2.1,1.5,3.4,4,3.8,7.7H199.1z"/>
		<path id="XMLID_924_" class="st1" d="M230.5,393.3c1.3,0.6,2.5,1.4,3.3,2.5c0.7,1,1.2,2,1.4,3c0.2,1,0.2,2.7,0.2,5V419h-7.2v-15.7
			c0-1.4-0.2-2.5-0.7-3.4c-0.6-1.2-1.8-1.8-3.6-1.8c-1.8,0-3.2,0.6-4.2,1.8s-1.4,2.9-1.4,5.1v14h-7v-34.8h7v12.3
			c1-1.5,2.2-2.5,3.5-3.1c1.3-0.6,2.7-0.9,4.2-0.9C227.6,392.5,229.1,392.8,230.5,393.3z"/>
		<path id="XMLID_926_" class="st1" d="M263.6,394.7c1.8,1.4,2.6,3.7,2.6,7V419h-7.2v-15.7c0-1.4-0.2-2.4-0.6-3.1
			c-0.7-1.3-2-2-3.9-2c-2.4,0-4,1-4.9,2.9c-0.5,1-0.7,2.3-0.7,3.9v14h-7v-25.8h6.8v3.8c0.9-1.3,1.8-2.3,2.6-2.9
			c1.4-1,3.3-1.6,5.5-1.6C259.6,392.6,261.9,393.3,263.6,394.7z"/>
		<path id="XMLID_928_" class="st1" d="M295.2,415.8c-2.3,2.7-5.7,4-10.3,4c-4.6,0-8.1-1.3-10.3-4c-2.3-2.7-3.4-5.9-3.4-9.7
			c0-3.7,1.1-6.9,3.4-9.7c2.3-2.7,5.7-4.1,10.3-4.1c4.6,0,8.1,1.4,10.3,4.1c2.3,2.7,3.4,6,3.4,9.7
			C298.6,409.9,297.5,413.2,295.2,415.8z M289.6,412.1c1.1-1.4,1.7-3.4,1.7-6c0-2.6-0.5-4.6-1.7-6c-1.1-1.4-2.7-2.1-4.7-2.1
			c-2.1,0-3.6,0.7-4.7,2.1c-1.1,1.4-1.7,3.4-1.7,6c0,2.6,0.6,4.6,1.7,6c1.1,1.4,2.7,2.1,4.7,2.1
			C286.9,414.2,288.5,413.5,289.6,412.1z"/>
		<path id="XMLID_931_" class="st1" d="M310.8,419h-7v-34.9h7V419z"/>
		<path id="XMLID_933_" class="st1" d="M340.1,415.8c-2.3,2.7-5.7,4-10.3,4c-4.6,0-8.1-1.3-10.3-4c-2.3-2.7-3.4-5.9-3.4-9.7
			c0-3.7,1.1-6.9,3.4-9.7c2.3-2.7,5.7-4.1,10.3-4.1c4.6,0,8.1,1.4,10.3,4.1c2.3,2.7,3.4,6,3.4,9.7
			C343.5,409.9,342.3,413.2,340.1,415.8z M334.4,412.1c1.1-1.4,1.7-3.4,1.7-6c0-2.6-0.5-4.6-1.7-6c-1.1-1.4-2.7-2.1-4.7-2.1
			c-2.1,0-3.6,0.7-4.7,2.1c-1.1,1.4-1.7,3.4-1.7,6c0,2.6,0.6,4.6,1.7,6c1.1,1.4,2.7,2.1,4.7,2.1
			C331.8,414.2,333.3,413.5,334.4,412.1z"/>
		<path id="XMLID_936_" class="st1" d="M361.8,393.2c1.7,0.7,3.1,1.9,4.1,3.7v-3.7h6.9v24.5c0,3.3-0.6,5.8-1.7,7.5
			c-2,2.9-5.9,4.4-11.5,4.4c-3.4,0-6.2-0.6-8.4-1.9c-2.2-1.3-3.4-3.2-3.6-5.8h7.6c0.2,0.8,0.5,1.4,1,1.7c0.8,0.6,2,0.9,3.8,0.9
			c2.5,0,4.2-0.8,5.1-2.4c0.6-1,0.8-2.8,0.8-5.3v-1.7c-0.7,1.1-1.4,1.9-2.2,2.5c-1.4,1-3.2,1.5-5.4,1.5c-3.4,0-6.2-1.2-8.3-3.5
			c-2.1-2.3-3.1-5.5-3.1-9.5c0-3.8,1-7.1,3-9.7c2-2.6,4.8-3.9,8.4-3.9C359.6,392.6,360.8,392.8,361.8,393.2z M364.2,411.7
			c1.1-1.2,1.7-3.1,1.7-5.7c0-2.4-0.5-4.3-1.6-5.6c-1.1-1.3-2.5-1.9-4.3-1.9c-2.5,0-4.1,1.1-5.1,3.3c-0.5,1.2-0.7,2.6-0.7,4.4
			c0,1.5,0.3,2.8,0.8,4c0.9,2.2,2.6,3.3,5.1,3.3C361.6,413.5,363,412.9,364.2,411.7z"/>
		<path id="XMLID_939_" class="st1" d="M386.5,390.1h-7.1v-6.2h7.1V390.1z M379.4,393.2h7.1V419h-7.1V393.2z"/>
		<path id="XMLID_942_" class="st1" d="M410.8,393.7c1.9,0.8,3.4,2.1,4.6,3.8c1.1,1.5,1.8,3.3,2.1,5.3c0.2,1.2,0.3,2.9,0.2,5.1
			h-19.6c0.1,2.6,1,4.4,2.8,5.4c1.1,0.6,2.4,1,3.9,1c1.6,0,2.9-0.4,3.9-1.2c0.5-0.4,1-1,1.4-1.8h7.2c-0.2,1.5-1.1,3.1-2.6,4.7
			c-2.4,2.5-5.8,3.8-10.1,3.8c-3.6,0-6.7-1.1-9.5-3.2s-4.1-5.6-4.1-10.3c0-4.5,1.2-7.9,3.7-10.3c2.5-2.4,5.7-3.6,9.6-3.6
			C406.9,392.5,409,392.9,410.8,393.7z M400.3,399.5c-1,1-1.6,2.3-1.9,4h12.1c-0.1-1.8-0.8-3.1-1.9-4.1s-2.5-1.4-4.2-1.4
			C402.7,398.1,401.3,398.6,400.3,399.5z"/>
		<path id="XMLID_945_" class="st1" d="M426.8,410.8c0.1,1.2,0.5,2.1,1,2.6c0.9,0.9,2.5,1.4,4.9,1.4c1.4,0,2.5-0.2,3.3-0.6
			c0.8-0.4,1.2-1,1.2-1.8c0-0.8-0.3-1.3-1-1.7c-0.7-0.4-3.1-1.1-7.3-2c-3.1-0.7-5.2-1.6-6.5-2.7c-1.2-1.1-1.9-2.6-1.9-4.6
			c0-2.4,1-4.4,2.9-6.1c2-1.7,4.7-2.6,8.2-2.6c3.4,0,6.1,0.6,8.2,1.9c2.1,1.3,3.3,3.5,3.6,6.7h-7c-0.1-0.9-0.4-1.6-0.8-2.1
			c-0.8-0.9-2.1-1.4-4-1.4c-1.5,0-2.6,0.2-3.3,0.7c-0.7,0.5-1,1-1,1.6c0,0.8,0.3,1.3,1,1.7c0.7,0.4,3.1,1,7.3,1.9
			c2.8,0.6,4.9,1.6,6.3,2.9c1.4,1.3,2.1,2.9,2.1,4.9c0,2.6-1,4.6-3,6.3c-2,1.6-5,2.4-9.2,2.4c-4.2,0-7.4-0.9-9.4-2.6
			c-2-1.7-3-3.9-3-6.5H426.8z"/>
		<path id="XMLID_947_" class="st1" d="M464.6,404.4c1.1-1.5,2.9-3,5.3-4.5l0.8-0.4c-1-1.1-1.9-2.3-2.4-3.5
			c-0.6-1.2-0.9-2.4-0.9-3.7c0-2.5,0.9-4.5,2.7-6c1.8-1.4,4.1-2.1,7-2.1c2.6,0,4.8,0.7,6.5,2.2c1.7,1.5,2.6,3.3,2.6,5.6
			c0,2.1-0.5,3.7-1.5,5c-1,1.3-2.5,2.5-4.5,3.6l5.2,6.1c0.6-0.8,1.1-1.7,1.4-2.7c0.3-1,0.5-2,0.5-3.1h6.2c-0.1,2.1-0.6,4.3-1.6,6.4
			c-0.5,1.2-1.4,2.6-2.6,4l6.6,7.6h-8.5l-2.5-3c-1.2,1.1-2.4,1.9-3.4,2.4c-1.9,0.9-4.1,1.4-6.5,1.4c-3.7,0-6.6-1-8.7-3.1
			c-2.1-2.1-3.1-4.4-3.1-6.9C463,407.7,463.5,405.9,464.6,404.4z M471.4,412.8c1,1,2.3,1.4,3.8,1.4c1.2,0,2.3-0.3,3.3-0.8
			c1-0.5,1.9-1.1,2.5-1.7l-6.8-7.9c-1.8,1.1-3,2.1-3.5,3c-0.6,0.9-0.9,1.8-0.9,2.8C469.9,410.8,470.4,411.8,471.4,412.8z
			 M474.5,394.1c0.3,0.5,1,1.3,2,2.4c1-0.7,1.8-1.2,2.2-1.7c0.9-0.9,1.3-1.8,1.3-2.8c0-0.7-0.3-1.4-0.8-1.9
			c-0.5-0.6-1.3-0.9-2.3-0.9c-0.6,0-1.3,0.2-1.8,0.5c-0.9,0.5-1.3,1.3-1.3,2.3C473.8,392.7,474.1,393.4,474.5,394.1z"/>
		<path id="XMLID_951_" class="st1" d="M520,408.2c0.2,1.6,0.7,2.8,1.4,3.6c1.3,1.4,3.4,2.2,6.5,2.2c1.8,0,3.3-0.2,4.5-0.6
			c2.2-0.7,3.2-2.1,3.2-4.1c0-1.1-0.5-2-1.6-2.7c-1.1-0.6-2.7-1.2-5-1.6l-3.9-0.8c-3.9-0.8-6.5-1.7-8-2.7c-2.4-1.6-3.7-4.1-3.7-7.6
			c0-3.1,1.2-5.7,3.6-7.8c2.4-2.1,5.9-3.1,10.6-3.1c3.9,0,7.2,1,9.9,2.9c2.7,1.9,4.2,4.8,4.3,8.5h-7.3c-0.1-2.1-1.1-3.6-2.9-4.5
			c-1.2-0.6-2.7-0.9-4.5-0.9c-2,0-3.6,0.4-4.8,1.1c-1.2,0.8-1.8,1.8-1.8,3.2c0,1.2,0.6,2.2,1.8,2.8c0.8,0.4,2.4,0.9,4.8,1.4l6.4,1.4
			c2.8,0.6,4.9,1.5,6.3,2.5c2.2,1.6,3.2,4,3.2,7.1c0,3.2-1.3,5.8-3.8,7.9c-2.6,2.1-6.2,3.2-10.9,3.2c-4.8,0-8.5-1-11.3-3.1
			c-2.7-2.1-4.1-4.9-4.1-8.6H520z"/>
		<path id="XMLID_953_" class="st1" d="M565.1,393.7c1.9,0.8,3.4,2.1,4.6,3.8c1.1,1.5,1.8,3.3,2.1,5.3c0.2,1.2,0.3,2.9,0.2,5.1
			h-19.6c0.1,2.6,1,4.4,2.8,5.4c1.1,0.6,2.4,1,3.9,1c1.6,0,2.9-0.4,3.9-1.2c0.5-0.4,1-1,1.4-1.8h7.2c-0.2,1.5-1.1,3.1-2.6,4.7
			c-2.4,2.5-5.8,3.8-10.1,3.8c-3.6,0-6.7-1.1-9.5-3.2s-4.1-5.6-4.1-10.3c0-4.5,1.2-7.9,3.7-10.3c2.5-2.4,5.7-3.6,9.6-3.6
			C561.1,392.5,563.3,392.9,565.1,393.7z M554.6,399.5c-1,1-1.6,2.3-1.9,4h12.1c-0.1-1.8-0.8-3.1-1.9-4.1c-1.1-0.9-2.5-1.4-4.2-1.4
			C557,398.1,555.6,398.6,554.6,399.5z"/>
		<path id="XMLID_956_" class="st1" d="M590.6,392.6c0.1,0,0.3,0,0.6,0v6.9c-0.4,0-0.8-0.1-1.2-0.1c-0.3,0-0.6,0-0.8,0
			c-2.8,0-4.7,0.9-5.7,2.7c-0.5,1-0.8,2.5-0.8,4.6V419h-7.1v-25.8h6.7v4.5c1.1-1.7,2-2.9,2.8-3.5c1.3-1.1,3-1.6,5.1-1.6
			C590.4,392.6,590.5,392.6,590.6,392.6z"/>
		<path id="XMLID_958_" class="st1" d="M611.9,393.2h7.5l-9.7,25.8h-7.4l-9.6-25.8h7.9l5.6,19L611.9,393.2z"/>
		<path id="XMLID_960_" class="st1" d="M630.6,390.1h-7.1v-6.2h7.1V390.1z M623.5,393.2h7.1V419h-7.1V393.2z"/>
		<path id="XMLID_963_" class="st1" d="M653.5,402.5c-0.1-1-0.5-1.8-1-2.6c-0.8-1-2-1.6-3.7-1.6c-2.4,0-4,1.1-4.9,3.4
			c-0.5,1.2-0.7,2.8-0.7,4.8c0,1.9,0.2,3.4,0.7,4.6c0.8,2.1,2.4,3.2,4.7,3.2c1.6,0,2.8-0.4,3.5-1.3c0.7-0.9,1.1-2,1.3-3.3h7.2
			c-0.2,2.1-0.9,4-2.3,5.8c-2.2,3-5.5,4.4-9.8,4.4c-4.3,0-7.5-1.2-9.5-3.7c-2-2.5-3.1-5.7-3.1-9.6c0-4.4,1.1-7.9,3.4-10.3
			c2.3-2.5,5.4-3.7,9.3-3.7c3.4,0,6.1,0.7,8.3,2.2c2.1,1.5,3.4,4,3.8,7.7H653.5z"/>
		<path id="XMLID_965_" class="st1" d="M683,393.7c1.9,0.8,3.4,2.1,4.6,3.8c1.1,1.5,1.8,3.3,2.1,5.3c0.2,1.2,0.3,2.9,0.2,5.1h-19.6
			c0.1,2.6,1,4.4,2.8,5.4c1.1,0.6,2.4,1,3.9,1c1.6,0,2.9-0.4,3.9-1.2c0.5-0.4,1-1,1.4-1.8h7.2c-0.2,1.5-1.1,3.1-2.6,4.7
			c-2.4,2.5-5.8,3.8-10.1,3.8c-3.6,0-6.7-1.1-9.5-3.2s-4.1-5.6-4.1-10.3c0-4.5,1.2-7.9,3.7-10.3c2.5-2.4,5.7-3.6,9.6-3.6
			C679,392.5,681.1,392.9,683,393.7z M672.5,399.5c-1,1-1.6,2.3-1.9,4h12.1c-0.1-1.8-0.8-3.1-1.9-4.1s-2.5-1.4-4.2-1.4
			C674.9,398.1,673.5,398.6,672.5,399.5z"/>
		<path id="XMLID_968_" class="st1" d="M699,410.8c0.1,1.2,0.5,2.1,1,2.6c0.9,0.9,2.5,1.4,4.9,1.4c1.4,0,2.5-0.2,3.3-0.6
			c0.8-0.4,1.2-1,1.2-1.8c0-0.8-0.3-1.3-1-1.7c-0.7-0.4-3.1-1.1-7.3-2c-3.1-0.7-5.2-1.6-6.5-2.7c-1.2-1.1-1.9-2.6-1.9-4.6
			c0-2.4,1-4.4,2.9-6.1c2-1.7,4.7-2.6,8.2-2.6c3.4,0,6.1,0.6,8.2,1.9c2.1,1.3,3.3,3.5,3.6,6.7h-7c-0.1-0.9-0.4-1.6-0.8-2.1
			c-0.8-0.9-2.1-1.4-4-1.4c-1.5,0-2.6,0.2-3.3,0.7c-0.7,0.5-1,1-1,1.6c0,0.8,0.3,1.3,1,1.7c0.7,0.4,3.1,1,7.3,1.9
			c2.8,0.6,4.9,1.6,6.3,2.9c1.4,1.3,2.1,2.9,2.1,4.9c0,2.6-1,4.6-3,6.3c-2,1.6-5,2.4-9.2,2.4c-4.2,0-7.4-0.9-9.4-2.6
			c-2-1.7-3-3.9-3-6.5H699z"/>
	</g>
</g>
</svg>
