<svg width="822" height="152" viewBox="0 0 822 152" fill="none" xmlns="http://www.w3.org/2000/svg">
<g clip-path="url(#clip0_2_88)">
<path d="M93.8855 133.193V151.16H0.0913086V133.193H8.20683V7.49456L14.6593 0.90686H79.8496L85.7699 7.09531V78.4954C85.7699 92.4027 74.2619 94.5986 72.0667 94.5986C72.0667 94.5986 68.6741 106.11 58.1639 110.036H41.4006V104.647H25.9679C21.644 104.647 21.9101 98.5247 25.6352 98.5247H41.4006V85.2162H25.6352C21.9101 85.2162 22.0431 79.0942 25.9679 79.0942H41.4006V73.6378H57.9643C68.4746 77.5638 71.8671 89.0756 71.8671 89.0756C71.8671 89.0756 79.7166 89.0756 79.7166 78.8946V9.89009L76.9227 7.29494H17.1206L14.1937 10.5555V138.849H5.47949V145.171H88.0316V138.982H79.65V107.375H85.4373V133.127H93.8855V133.193Z" fill="#FF5716"/>
<path d="M70.4026 16.2119H23.7051V51.8121H70.4026V16.2119Z" fill="#FF5716"/>
<path d="M70.4026 16.2119H23.7051V51.8121H70.4026V16.2119Z" fill="#FF5716"/>
<path d="M222.604 115.826C227.261 115.826 230.587 116.359 232.649 117.49C234.711 118.621 236.174 120.218 236.906 122.414C237.704 124.543 238.037 127.272 238.037 130.599C238.037 133.926 237.771 136.587 237.172 138.65C236.573 140.647 235.842 142.244 235.044 143.242C234.179 144.306 232.981 145.105 231.318 145.571C229.389 146.303 226.396 146.635 222.272 146.635H148.234C145.507 146.635 142.912 145.903 140.385 144.506C135.129 141.512 132.535 136.854 132.535 130.466C132.535 127.405 133.267 124.876 134.664 123.013L189.876 46.6221H148.966C146.105 46.6221 143.977 46.5555 142.646 46.3559C141.249 46.1563 139.653 45.6905 137.724 44.8254C134.265 43.1619 132.535 38.7035 132.535 31.4504C132.535 24.1973 134.132 19.2066 137.325 17.543C139.121 16.6114 140.651 16.0125 142.048 15.8795C143.378 15.6798 145.507 15.6133 148.367 15.6133H219.943C222.671 15.6133 225.265 16.3452 227.793 17.7426C230.321 19.14 232.183 21.0698 233.58 23.4653C234.91 25.8608 235.642 28.6556 235.642 31.8496C235.642 35.0437 234.91 37.6388 233.514 39.502L178.301 115.893H222.604V115.826Z" fill="#FF5716"/>
<path d="M275.621 114.762H330.434C333.162 114.762 335.224 114.828 336.554 115.028C337.884 115.227 339.481 115.76 341.277 116.691C344.47 118.355 346.067 122.946 346.067 130.599C346.067 138.917 343.871 143.774 339.481 145.172C337.485 145.904 334.359 146.236 330.235 146.236H259.723C251.408 146.236 246.552 143.974 245.155 139.449C244.423 137.519 244.09 134.525 244.09 130.399V31.4505C244.09 25.3951 245.221 21.2695 247.483 19.0736C249.745 16.8777 254.002 15.7465 260.321 15.7465H330.434C333.162 15.7465 335.224 15.813 336.554 16.0126C337.884 16.2123 339.481 16.7446 341.277 17.6762C344.47 19.3398 346.067 23.9977 346.067 31.5836C346.067 39.9014 343.871 44.759 339.481 46.1564C337.485 46.8883 334.359 47.221 330.235 47.221H275.555V65.1875H310.811C313.538 65.1875 315.6 65.2541 316.93 65.4537C318.261 65.6533 319.857 66.1856 321.653 67.1172C324.846 68.7808 326.443 73.4388 326.443 81.0246C326.443 89.3424 324.181 94.2 319.658 95.5974C317.662 96.3294 314.536 96.6621 310.411 96.6621H275.488V114.762H275.621Z" fill="#FF5716"/>
<path d="M403.674 52.6107C414.25 52.6107 423.962 57.3352 432.743 66.6511C441.59 76.0336 445.981 86.9466 445.981 99.3235C445.981 111.7 441.59 122.613 432.81 131.929C424.029 141.245 414.583 145.903 404.538 145.903C394.494 145.903 387.243 143.042 382.986 137.386C382.054 143.175 376.932 146.103 367.686 146.103C360.236 146.103 355.646 144.506 353.983 141.312C353.184 139.515 352.652 137.985 352.453 136.587C352.253 135.256 352.187 133.194 352.187 130.465V24.1305C352.187 21.4022 352.253 19.3394 352.453 18.0086C352.652 16.6777 353.118 15.1472 353.983 13.4837C355.646 10.2896 360.302 8.69263 367.885 8.69263C375.469 8.69263 379.859 10.2896 381.389 13.4837C382.32 15.2803 382.919 16.8108 383.052 18.2082C383.252 19.5391 383.318 21.6019 383.318 24.3301V61.3943C388.108 55.5385 394.826 52.6107 403.674 52.6107ZM388.041 110.103C390.968 113.297 394.627 114.894 399.017 114.894C403.407 114.894 407.133 113.297 410.259 110.103C413.319 106.909 414.916 103.316 414.916 99.39C414.916 95.464 413.519 91.8707 410.658 88.6101C407.798 85.3495 404.006 83.7525 399.283 83.7525C394.56 83.7525 390.768 85.4161 387.975 88.7432C385.181 92.0703 383.784 95.6636 383.784 99.5231C383.784 103.383 385.181 106.909 388.041 110.103Z" fill="#FF5716"/>
<path d="M464.339 64.189C474.317 54.9396 485.692 50.2816 498.531 50.2816C511.369 50.2816 522.678 54.873 532.523 64.0559C542.368 73.2388 547.291 84.9502 547.291 99.1903C547.291 109.039 544.763 117.822 539.641 125.475C534.519 133.127 528.332 138.783 521.015 142.376C513.698 146.036 506.181 147.833 498.331 147.833C490.482 147.833 482.898 145.903 475.581 142.044C468.197 138.184 462.011 132.462 456.955 124.942C451.9 117.423 449.372 108.906 449.372 99.3899C449.372 85.2164 454.361 73.4384 464.339 64.189ZM486.557 112.166C490.349 115.094 494.207 116.558 498.132 116.558C502.056 116.558 505.981 115.094 509.906 112.1C513.831 109.105 515.76 104.713 515.76 98.9241C515.76 93.135 513.897 88.7432 510.238 85.9484C506.58 83.0871 502.589 81.6896 498.331 81.6896C494.074 81.6896 490.083 83.1536 486.424 86.148C482.765 89.1424 480.903 93.4677 480.903 99.2569C480.903 104.913 482.765 109.305 486.557 112.166Z" fill="#FF5716"/>
<path d="M617.07 53.4754C619.332 54.2073 621.194 55.4051 622.658 57.1352C624.121 58.8653 624.853 61.5936 624.853 65.3865C624.853 69.1794 623.722 73.3716 621.46 77.8299C619.199 82.3548 615.939 84.6172 611.682 84.6172C609.553 84.6172 607.491 84.1515 605.562 83.1533C603.633 82.2217 601.039 81.7559 597.846 81.7559C594.653 81.7559 591.659 82.8871 588.865 85.1496C586.071 87.412 584.674 90.1403 584.674 93.3343V130.731C584.674 133.459 584.608 135.522 584.408 136.853C584.209 138.25 583.677 139.781 582.745 141.578C580.949 144.639 576.359 146.236 568.843 146.236C563.122 146.236 559.064 145.237 556.536 143.175C554.607 141.511 553.543 138.982 553.343 135.522V67.8485C553.343 65.1203 553.41 63.0575 553.609 61.7266C553.809 60.3958 554.275 58.8653 555.139 57.2018C556.802 54.0077 561.459 52.4107 569.042 52.4107C576.16 52.4107 580.617 53.7415 582.413 56.5363C583.743 58.4661 584.342 60.3958 584.342 62.3921C584.941 61.5936 585.805 60.5289 586.936 59.3977C588.067 58.1999 590.462 56.6029 594.12 54.6066C597.779 52.6103 601.039 51.6122 603.832 51.6122C606.626 51.6122 608.955 51.7453 610.884 52.078C612.746 52.2776 614.808 52.8099 617.07 53.4754Z" fill="#FF5716"/>
<path d="M681.33 52.4106C693.171 52.4106 703.083 56.9355 710.999 66.0519C718.914 75.1016 722.839 86.2142 722.839 99.2565V130.598C722.839 133.326 722.773 135.389 722.573 136.72C722.374 138.051 721.908 139.581 721.043 141.245C719.38 144.439 714.724 146.036 707.14 146.036C698.692 146.036 693.836 143.84 692.572 139.448C691.841 137.452 691.508 134.391 691.508 130.398V99.0569C691.508 94.1993 690.111 90.4064 687.317 87.6782C684.523 84.9499 680.798 83.6191 676.142 83.6191C671.485 83.6191 667.627 85.0164 664.767 87.8778C661.84 90.7391 660.376 94.4655 660.376 99.0569V130.598C660.376 133.326 660.31 135.389 660.11 136.72C659.911 138.051 659.378 139.581 658.447 141.245C656.917 144.439 652.327 146.036 644.744 146.036C637.161 146.036 632.704 144.439 631.041 141.245C630.176 139.448 629.71 137.918 629.511 136.52C629.311 135.189 629.245 133.127 629.245 130.398V67.3827C629.245 64.7875 629.311 62.7913 629.511 61.3939C629.71 60.063 630.242 58.5326 631.174 56.869C632.837 53.8746 637.427 52.4106 644.877 52.4106C652.327 52.4106 656.585 53.7415 658.248 56.5363C659.445 58.5325 660.044 60.9946 660.044 63.8559C660.509 63.0574 661.574 61.8597 663.237 60.2627C664.9 58.7322 666.496 57.4679 668.026 56.5363C672.017 53.808 676.474 52.4106 681.33 52.4106Z" fill="#FF5716"/>
<path d="M821.956 88.1446C821.956 95.4643 820.16 100.854 816.501 104.381C812.843 107.841 808.852 109.638 804.461 109.638H762.287C762.287 112.965 764.216 115.76 768.141 118.022C772.066 120.285 775.99 121.416 779.915 121.416C786.767 121.416 792.221 120.684 796.146 119.286L798.075 118.554C800.936 117.224 803.33 116.625 805.193 116.625C808.985 116.625 812.244 119.286 814.971 124.61C816.501 127.804 817.3 130.532 817.3 132.795C817.3 143.375 804.661 148.632 779.383 148.632C770.602 148.632 762.819 147.101 755.968 144.107C749.116 141.112 743.861 137.053 740.069 132.063C732.619 122.48 728.827 111.701 728.827 99.8561C728.827 84.884 733.683 72.9064 743.329 63.9897C752.974 55.0064 765.081 50.5481 779.582 50.5481C796.08 50.5481 808.186 56.3373 815.903 67.9822C819.96 74.1041 821.956 80.8249 821.956 88.1446ZM784.372 93.4014C788.895 93.4014 791.157 91.4717 791.157 87.6788C791.157 84.9506 790.093 82.7546 788.031 81.0911C785.968 79.4275 782.975 78.5625 779.117 78.5625C775.259 78.5625 771.467 80.1595 767.609 83.287C763.817 86.4145 761.888 89.8081 761.888 93.3349H784.372V93.4014Z" fill="#FF5716"/>
</g>
<defs>
<clipPath id="clip0_2_88">
<rect width="822" height="152" fill="white"/>
</clipPath>
</defs>
</svg>
